solid
  facet normal -1.0000000E+00 +0.0000000E+00 +0.0000000E+00
    outer loop      
      vertex   +5.0000000E-01 +0.0000000E+00 +5.0000000E-02
      vertex   +5.0000000E-01 +0.0000000E+00 +0.0000000E+00
      vertex   +5.0000000E-01 -5.0000000E-02 +0.0000000E+00
    endloop
  endfacet
  facet normal -1.0000000E+00 +0.0000000E+00 +0.0000000E+00
    outer loop      
      vertex   +5.0000000E-01 -5.0000000E-02 +0.0000000E+00
      vertex   +5.0000000E-01 -5.0000000E-02 +5.0000000E-02
      vertex   +5.0000000E-01 +0.0000000E+00 +5.0000000E-02
    endloop
  endfacet
  facet normal +0.0000000E+00 +1.0000000E+00 +0.0000000E+00
    outer loop      
      vertex   +5.5000000E-01 +0.0000000E+00 +5.0000000E-02
      vertex   +5.5000000E-01 +0.0000000E+00 +0.0000000E+00
      vertex   +5.0000000E-01 +0.0000000E+00 +0.0000000E+00
    endloop
  endfacet
  facet normal +0.0000000E+00 +1.0000000E+00 +0.0000000E+00
    outer loop      
      vertex   +5.0000000E-01 +0.0000000E+00 +0.0000000E+00
      vertex   +5.0000000E-01 +0.0000000E+00 +5.0000000E-02
      vertex   +5.5000000E-01 +0.0000000E+00 +5.0000000E-02
    endloop
  endfacet
  facet normal +1.0000000E+00 +0.0000000E+00 +0.0000000E+00
    outer loop      
      vertex   +5.5000000E-01 -5.0000000E-02 +5.0000000E-02
      vertex   +5.5000000E-01 -5.0000000E-02 +0.0000000E+00
      vertex   +5.5000000E-01 +0.0000000E+00 +0.0000000E+00
    endloop
  endfacet
  facet normal +1.0000000E+00 +0.0000000E+00 +0.0000000E+00
    outer loop      
      vertex   +5.5000000E-01 +0.0000000E+00 +0.0000000E+00
      vertex   +5.5000000E-01 +0.0000000E+00 +5.0000000E-02
      vertex   +5.5000000E-01 -5.0000000E-02 +5.0000000E-02
    endloop
  endfacet
  facet normal +0.0000000E+00 -1.0000000E+00 +0.0000000E+00
    outer loop      
      vertex   +5.0000000E-01 -5.0000000E-02 +5.0000000E-02
      vertex   +5.0000000E-01 -5.0000000E-02 +0.0000000E+00
      vertex   +5.5000000E-01 -5.0000000E-02 +0.0000000E+00
    endloop
  endfacet
  facet normal +0.0000000E+00 -1.0000000E+00 +0.0000000E+00
    outer loop      
      vertex   +5.5000000E-01 -5.0000000E-02 +0.0000000E+00
      vertex   +5.5000000E-01 -5.0000000E-02 +5.0000000E-02
      vertex   +5.0000000E-01 -5.0000000E-02 +5.0000000E-02
    endloop
  endfacet
  facet normal +0.0000000E+00 +0.0000000E+00 +1.0000000E-00
    outer loop      
      vertex   +5.0000000E-01 -5.0000000E-02 +5.0000000E-02
      vertex   +5.5000000E-01 -5.0000000E-02 +5.0000000E-02
      vertex   +5.5000000E-01 +0.0000000E+00 +5.0000000E-02
    endloop
  endfacet
  facet normal +0.0000000E+00 +0.0000000E+00 +1.0000000E-00
    outer loop      
      vertex   +5.5000000E-01 +0.0000000E+00 +5.0000000E-02
      vertex   +5.0000000E-01 +0.0000000E+00 +5.0000000E-02
      vertex   +5.0000000E-01 -5.0000000E-02 +5.0000000E-02
    endloop
  endfacet
  facet normal +0.0000000E+00 +0.0000000E+00 -1.0000000E-00
    outer loop      
      vertex   +5.0000000E-01 -5.0000000E-02 +0.0000000E+00
      vertex   +5.0000000E-01 +0.0000000E+00 +0.0000000E+00
      vertex   +5.5000000E-01 +0.0000000E+00 +0.0000000E+00
    endloop
  endfacet
  facet normal +0.0000000E+00 +0.0000000E+00 -1.0000000E-00
    outer loop      
      vertex   +5.5000000E-01 +0.0000000E+00 +0.0000000E+00
      vertex   +5.5000000E-01 -5.0000000E-02 +0.0000000E+00
      vertex   +5.0000000E-01 -5.0000000E-02 +0.0000000E+00
    endloop
  endfacet
endsolid
solid
  facet normal -1.0000000E+00 +0.0000000E+00 +0.0000000E+00
    outer loop      
      vertex   +0.0000000E+00 -1.5000000E-01 +5.0000000E-02
      vertex   +0.0000000E+00 -1.5000000E-01 +0.0000000E+00
      vertex   +0.0000000E+00 -2.0000000E-01 +0.0000000E+00
    endloop
  endfacet
  facet normal -1.0000000E+00 +0.0000000E+00 +0.0000000E+00
    outer loop      
      vertex   +0.0000000E+00 -2.0000000E-01 +0.0000000E+00
      vertex   +0.0000000E+00 -2.0000000E-01 +5.0000000E-02
      vertex   +0.0000000E+00 -1.5000000E-01 +5.0000000E-02
    endloop
  endfacet
  facet normal -5.6843418E-13 +1.0000000E+00 +0.0000000E+00
    outer loop      
      vertex   +5.0000000E-02 -1.5000000E-01 +5.0000000E-02
      vertex   +5.0000000E-02 -1.5000000E-01 +0.0000000E+00
      vertex   +0.0000000E+00 -1.5000000E-01 +0.0000000E+00
    endloop
  endfacet
  facet normal -5.6843418E-13 +1.0000000E+00 +0.0000000E+00
    outer loop      
      vertex   +0.0000000E+00 -1.5000000E-01 +0.0000000E+00
      vertex   +0.0000000E+00 -1.5000000E-01 +5.0000000E-02
      vertex   +5.0000000E-02 -1.5000000E-01 +5.0000000E-02
    endloop
  endfacet
  facet normal +1.0000000E+00 -1.4210854E-13 +0.0000000E+00
    outer loop      
      vertex   +5.0000000E-02 -2.0000000E-01 +5.0000000E-02
      vertex   +5.0000000E-02 -2.0000000E-01 +0.0000000E+00
      vertex   +5.0000000E-02 -1.5000000E-01 +0.0000000E+00
    endloop
  endfacet
  facet normal +1.0000000E+00 -1.4210854E-13 +0.0000000E+00
    outer loop      
      vertex   +5.0000000E-02 -1.5000000E-01 +0.0000000E+00
      vertex   +5.0000000E-02 -1.5000000E-01 +5.0000000E-02
      vertex   +5.0000000E-02 -2.0000000E-01 +5.0000000E-02
    endloop
  endfacet
  facet normal -5.6843418E-13 -1.0000000E+00 +0.0000000E+00
    outer loop      
      vertex   +0.0000000E+00 -2.0000000E-01 +5.0000000E-02
      vertex   +0.0000000E+00 -2.0000000E-01 +0.0000000E+00
      vertex   +5.0000000E-02 -2.0000000E-01 +0.0000000E+00
    endloop
  endfacet
  facet normal -5.6843418E-13 -1.0000000E+00 +0.0000000E+00
    outer loop      
      vertex   +5.0000000E-02 -2.0000000E-01 +0.0000000E+00
      vertex   +5.0000000E-02 -2.0000000E-01 +5.0000000E-02
      vertex   +0.0000000E+00 -2.0000000E-01 +5.0000000E-02
    endloop
  endfacet
  facet normal +0.0000000E+00 +0.0000000E+00 +1.0000000E+00
    outer loop      
      vertex   +5.0000000E-02 -1.5000000E-01 +5.0000000E-02
      vertex   +0.0000000E+00 -1.5000000E-01 +5.0000000E-02
      vertex   +0.0000000E+00 -2.0000000E-01 +5.0000000E-02
    endloop
  endfacet
  facet normal +0.0000000E+00 +0.0000000E+00 +1.0000000E+00
    outer loop      
      vertex   +0.0000000E+00 -2.0000000E-01 +5.0000000E-02
      vertex   +5.0000000E-02 -2.0000000E-01 +5.0000000E-02
      vertex   +5.0000000E-02 -1.5000000E-01 +5.0000000E-02
    endloop
  endfacet
  facet normal +0.0000000E+00 +0.0000000E+00 -1.0000000E+00
    outer loop      
      vertex   +5.0000000E-02 -1.5000000E-01 +0.0000000E+00
      vertex   +5.0000000E-02 -2.0000000E-01 +0.0000000E+00
      vertex   +0.0000000E+00 -2.0000000E-01 +0.0000000E+00
    endloop
  endfacet
  facet normal +0.0000000E+00 +0.0000000E+00 -1.0000000E+00
    outer loop      
      vertex   +0.0000000E+00 -2.0000000E-01 +0.0000000E+00
      vertex   +0.0000000E+00 -1.5000000E-01 +0.0000000E+00
      vertex   +5.0000000E-02 -1.5000000E-01 +0.0000000E+00
    endloop
  endfacet
endsolid
solid
  facet normal -1.0000000E+00 +0.0000000E+00 +0.0000000E+00
    outer loop      
      vertex   +0.0000000E+00 -5.0000000E-02 +5.0000000E-02
      vertex   +0.0000000E+00 -5.0000000E-02 +0.0000000E+00
      vertex   +0.0000000E+00 -1.0000000E-01 +0.0000000E+00
    endloop
  endfacet
  facet normal -1.0000000E+00 +0.0000000E+00 +0.0000000E+00
    outer loop      
      vertex   +0.0000000E+00 -1.0000000E-01 +0.0000000E+00
      vertex   +0.0000000E+00 -1.0000000E-01 +5.0000000E-02
      vertex   +0.0000000E+00 -5.0000000E-02 +5.0000000E-02
    endloop
  endfacet
  facet normal +0.0000000E+00 +1.0000000E+00 +0.0000000E+00
    outer loop      
      vertex   +5.0000000E-02 -5.0000000E-02 +5.0000000E-02
      vertex   +5.0000000E-02 -5.0000000E-02 +0.0000000E+00
      vertex   +0.0000000E+00 -5.0000000E-02 +0.0000000E+00
    endloop
  endfacet
  facet normal +0.0000000E+00 +1.0000000E+00 +0.0000000E+00
    outer loop      
      vertex   +0.0000000E+00 -5.0000000E-02 +0.0000000E+00
      vertex   +0.0000000E+00 -5.0000000E-02 +5.0000000E-02
      vertex   +5.0000000E-02 -5.0000000E-02 +5.0000000E-02
    endloop
  endfacet
  facet normal +1.0000000E+00 +0.0000000E+00 +0.0000000E+00
    outer loop      
      vertex   +5.0000000E-02 -1.0000000E-01 +5.0000000E-02
      vertex   +5.0000000E-02 -1.0000000E-01 +0.0000000E+00
      vertex   +5.0000000E-02 -5.0000000E-02 +0.0000000E+00
    endloop
  endfacet
  facet normal +1.0000000E+00 +0.0000000E+00 +0.0000000E+00
    outer loop      
      vertex   +5.0000000E-02 -5.0000000E-02 +0.0000000E+00
      vertex   +5.0000000E-02 -5.0000000E-02 +5.0000000E-02
      vertex   +5.0000000E-02 -1.0000000E-01 +5.0000000E-02
    endloop
  endfacet
  facet normal -2.8449464E-13 -1.0000000E+00 +0.0000000E+00
    outer loop      
      vertex   +0.0000000E+00 -1.0000000E-01 +5.0000000E-02
      vertex   +0.0000000E+00 -1.0000000E-01 +0.0000000E+00
      vertex   +5.0000000E-02 -1.0000000E-01 +0.0000000E+00
    endloop
  endfacet
  facet normal -2.8449464E-13 -1.0000000E+00 +0.0000000E+00
    outer loop      
      vertex   +5.0000000E-02 -1.0000000E-01 +0.0000000E+00
      vertex   +5.0000000E-02 -1.0000000E-01 +5.0000000E-02
      vertex   +0.0000000E+00 -1.0000000E-01 +5.0000000E-02
    endloop
  endfacet
  facet normal +0.0000000E+00 +0.0000000E+00 +1.0000000E+00
    outer loop      
      vertex   +5.0000000E-02 -5.0000000E-02 +5.0000000E-02
      vertex   +0.0000000E+00 -5.0000000E-02 +5.0000000E-02
      vertex   +0.0000000E+00 -1.0000000E-01 +5.0000000E-02
    endloop
  endfacet
  facet normal +0.0000000E+00 +0.0000000E+00 +1.0000000E+00
    outer loop      
      vertex   +0.0000000E+00 -1.0000000E-01 +5.0000000E-02
      vertex   +5.0000000E-02 -1.0000000E-01 +5.0000000E-02
      vertex   +5.0000000E-02 -5.0000000E-02 +5.0000000E-02
    endloop
  endfacet
  facet normal +0.0000000E+00 +0.0000000E+00 -1.0000000E+00
    outer loop      
      vertex   +5.0000000E-02 -5.0000000E-02 +0.0000000E+00
      vertex   +5.0000000E-02 -1.0000000E-01 +0.0000000E+00
      vertex   +0.0000000E+00 -1.0000000E-01 +0.0000000E+00
    endloop
  endfacet
  facet normal +0.0000000E+00 +0.0000000E+00 -1.0000000E+00
    outer loop      
      vertex   +0.0000000E+00 -1.0000000E-01 +0.0000000E+00
      vertex   +0.0000000E+00 -5.0000000E-02 +0.0000000E+00
      vertex   +5.0000000E-02 -5.0000000E-02 +0.0000000E+00
    endloop
  endfacet
endsolid
solid
  facet normal +1.0000000E+00 +0.0000000E+00 +0.0000000E+00
    outer loop      
      vertex   +5.0000000E-02 +0.0000000E+00 +5.0000000E-02
      vertex   +5.0000000E-02 +0.0000000E+00 +0.0000000E+00
      vertex   +5.0000000E-02 +5.0000000E-02 +0.0000000E+00
    endloop
  endfacet
  facet normal +1.0000000E+00 +0.0000000E+00 +0.0000000E+00
    outer loop      
      vertex   +5.0000000E-02 +5.0000000E-02 +0.0000000E+00
      vertex   +5.0000000E-02 +5.0000000E-02 +5.0000000E-02
      vertex   +5.0000000E-02 +0.0000000E+00 +5.0000000E-02
    endloop
  endfacet
  facet normal +0.0000000E+00 +1.0000000E+00 +0.0000000E+00
    outer loop      
      vertex   +5.0000000E-02 +5.0000000E-02 +5.0000000E-02
      vertex   +5.0000000E-02 +5.0000000E-02 +0.0000000E+00
      vertex   +0.0000000E+00 +5.0000000E-02 +0.0000000E+00
    endloop
  endfacet
  facet normal +0.0000000E+00 +1.0000000E+00 +0.0000000E+00
    outer loop      
      vertex   +0.0000000E+00 +5.0000000E-02 +0.0000000E+00
      vertex   +0.0000000E+00 +5.0000000E-02 +5.0000000E-02
      vertex   +5.0000000E-02 +5.0000000E-02 +5.0000000E-02
    endloop
  endfacet
  facet normal -1.0000000E+00 +0.0000000E+00 +0.0000000E+00
    outer loop      
      vertex   +0.0000000E+00 +5.0000000E-02 +5.0000000E-02
      vertex   +0.0000000E+00 +5.0000000E-02 +0.0000000E+00
      vertex   +0.0000000E+00 +0.0000000E+00 +0.0000000E+00
    endloop
  endfacet
  facet normal -1.0000000E+00 +0.0000000E+00 +0.0000000E+00
    outer loop      
      vertex   +0.0000000E+00 +0.0000000E+00 +0.0000000E+00
      vertex   +0.0000000E+00 +0.0000000E+00 +5.0000000E-02
      vertex   +0.0000000E+00 +5.0000000E-02 +5.0000000E-02
    endloop
  endfacet
  facet normal +0.0000000E+00 -1.0000000E+00 +0.0000000E+00
    outer loop      
      vertex   +0.0000000E+00 +0.0000000E+00 +5.0000000E-02
      vertex   +0.0000000E+00 +0.0000000E+00 +0.0000000E+00
      vertex   +5.0000000E-02 +0.0000000E+00 +0.0000000E+00
    endloop
  endfacet
  facet normal +0.0000000E+00 -1.0000000E+00 +0.0000000E+00
    outer loop      
      vertex   +5.0000000E-02 +0.0000000E+00 +0.0000000E+00
      vertex   +5.0000000E-02 +0.0000000E+00 +5.0000000E-02
      vertex   +0.0000000E+00 +0.0000000E+00 +5.0000000E-02
    endloop
  endfacet
  facet normal +0.0000000E+00 +0.0000000E+00 +1.0000000E+00
    outer loop      
      vertex   +5.0000000E-02 +0.0000000E+00 +5.0000000E-02
      vertex   +5.0000000E-02 +5.0000000E-02 +5.0000000E-02
      vertex   +0.0000000E+00 +5.0000000E-02 +5.0000000E-02
    endloop
  endfacet
  facet normal +0.0000000E+00 +0.0000000E+00 +1.0000000E+00
    outer loop      
      vertex   +0.0000000E+00 +5.0000000E-02 +5.0000000E-02
      vertex   +0.0000000E+00 +0.0000000E+00 +5.0000000E-02
      vertex   +5.0000000E-02 +0.0000000E+00 +5.0000000E-02
    endloop
  endfacet
  facet normal +0.0000000E+00 +0.0000000E+00 -1.0000000E+00
    outer loop      
      vertex   +5.0000000E-02 +0.0000000E+00 +0.0000000E+00
      vertex   +0.0000000E+00 +0.0000000E+00 +0.0000000E+00
      vertex   +0.0000000E+00 +5.0000000E-02 +0.0000000E+00
    endloop
  endfacet
  facet normal +0.0000000E+00 +0.0000000E+00 -1.0000000E+00
    outer loop      
      vertex   +0.0000000E+00 +5.0000000E-02 +0.0000000E+00
      vertex   +5.0000000E-02 +5.0000000E-02 +0.0000000E+00
      vertex   +5.0000000E-02 +0.0000000E+00 +0.0000000E+00
    endloop
  endfacet
endsolid
solid
  facet normal -1.0000000E+00 +0.0000000E+00 +0.0000000E+00
    outer loop      
      vertex   +1.0000000E-01 -1.0000000E-01 +5.0000000E-02
      vertex   +1.0000000E-01 -1.0000000E-01 +0.0000000E+00
      vertex   +1.0000000E-01 -1.5000000E-01 +0.0000000E+00
    endloop
  endfacet
  facet normal -1.0000000E+00 +0.0000000E+00 +0.0000000E+00
    outer loop      
      vertex   +1.0000000E-01 -1.5000000E-01 +0.0000000E+00
      vertex   +1.0000000E-01 -1.5000000E-01 +5.0000000E-02
      vertex   +1.0000000E-01 -1.0000000E-01 +5.0000000E-02
    endloop
  endfacet
  facet normal +0.0000000E+00 +1.0000000E+00 +0.0000000E+00
    outer loop      
      vertex   +1.5000000E-01 -1.0000000E-01 +5.0000000E-02
      vertex   +1.5000000E-01 -1.0000000E-01 +0.0000000E+00
      vertex   +1.0000000E-01 -1.0000000E-01 +0.0000000E+00
    endloop
  endfacet
  facet normal +0.0000000E+00 +1.0000000E+00 +0.0000000E+00
    outer loop      
      vertex   +1.0000000E-01 -1.0000000E-01 +0.0000000E+00
      vertex   +1.0000000E-01 -1.0000000E-01 +5.0000000E-02
      vertex   +1.5000000E-01 -1.0000000E-01 +5.0000000E-02
    endloop
  endfacet
  facet normal +1.0000000E+00 -5.6843418E-13 +0.0000000E+00
    outer loop      
      vertex   +1.5000000E-01 -1.5000000E-01 +5.0000000E-02
      vertex   +1.5000000E-01 -1.5000000E-01 +0.0000000E+00
      vertex   +1.5000000E-01 -1.0000000E-01 +0.0000000E+00
    endloop
  endfacet
  facet normal +1.0000000E+00 -5.6843418E-13 +0.0000000E+00
    outer loop      
      vertex   +1.5000000E-01 -1.0000000E-01 +0.0000000E+00
      vertex   +1.5000000E-01 -1.0000000E-01 +5.0000000E-02
      vertex   +1.5000000E-01 -1.5000000E-01 +5.0000000E-02
    endloop
  endfacet
  facet normal +0.0000000E+00 -1.0000000E+00 +0.0000000E+00
    outer loop      
      vertex   +1.0000000E-01 -1.5000000E-01 +5.0000000E-02
      vertex   +1.0000000E-01 -1.5000000E-01 +0.0000000E+00
      vertex   +1.5000000E-01 -1.5000000E-01 +0.0000000E+00
    endloop
  endfacet
  facet normal +0.0000000E+00 -1.0000000E+00 +0.0000000E+00
    outer loop      
      vertex   +1.5000000E-01 -1.5000000E-01 +0.0000000E+00
      vertex   +1.5000000E-01 -1.5000000E-01 +5.0000000E-02
      vertex   +1.0000000E-01 -1.5000000E-01 +5.0000000E-02
    endloop
  endfacet
  facet normal +0.0000000E+00 +0.0000000E+00 +1.0000000E+00
    outer loop      
      vertex   +1.0000000E-01 -1.0000000E-01 +5.0000000E-02
      vertex   +1.0000000E-01 -1.5000000E-01 +5.0000000E-02
      vertex   +1.5000000E-01 -1.5000000E-01 +5.0000000E-02
    endloop
  endfacet
  facet normal +0.0000000E+00 +0.0000000E+00 +1.0000000E+00
    outer loop      
      vertex   +1.5000000E-01 -1.5000000E-01 +5.0000000E-02
      vertex   +1.5000000E-01 -1.0000000E-01 +5.0000000E-02
      vertex   +1.0000000E-01 -1.0000000E-01 +5.0000000E-02
    endloop
  endfacet
  facet normal +0.0000000E+00 +0.0000000E+00 -1.0000000E+00
    outer loop      
      vertex   +1.0000000E-01 -1.0000000E-01 +0.0000000E+00
      vertex   +1.5000000E-01 -1.0000000E-01 +0.0000000E+00
      vertex   +1.5000000E-01 -1.5000000E-01 +0.0000000E+00
    endloop
  endfacet
  facet normal +0.0000000E+00 +0.0000000E+00 -1.0000000E+00
    outer loop      
      vertex   +1.5000000E-01 -1.5000000E-01 +0.0000000E+00
      vertex   +1.0000000E-01 -1.5000000E-01 +0.0000000E+00
      vertex   +1.0000000E-01 -1.0000000E-01 +0.0000000E+00
    endloop
  endfacet
endsolid
solid
  facet normal -1.0000000E+00 +2.8421709E-13 +0.0000000E+00
    outer loop      
      vertex   +1.0000000E-01 +0.0000000E+00 +5.0000000E-02
      vertex   +1.0000000E-01 +0.0000000E+00 +0.0000000E+00
      vertex   +1.0000000E-01 -5.0000000E-02 +0.0000000E+00
    endloop
  endfacet
  facet normal -1.0000000E+00 +2.8421709E-13 +0.0000000E+00
    outer loop      
      vertex   +1.0000000E-01 -5.0000000E-02 +0.0000000E+00
      vertex   +1.0000000E-01 -5.0000000E-02 +5.0000000E-02
      vertex   +1.0000000E-01 +0.0000000E+00 +5.0000000E-02
    endloop
  endfacet
  facet normal +0.0000000E+00 +1.0000000E+00 +0.0000000E+00
    outer loop      
      vertex   +1.5000000E-01 +0.0000000E+00 +5.0000000E-02
      vertex   +1.5000000E-01 +0.0000000E+00 +0.0000000E+00
      vertex   +1.0000000E-01 +0.0000000E+00 +0.0000000E+00
    endloop
  endfacet
  facet normal +0.0000000E+00 +1.0000000E+00 +0.0000000E+00
    outer loop      
      vertex   +1.0000000E-01 +0.0000000E+00 +0.0000000E+00
      vertex   +1.0000000E-01 +0.0000000E+00 +5.0000000E-02
      vertex   +1.5000000E-01 +0.0000000E+00 +5.0000000E-02
    endloop
  endfacet
  facet normal +1.0000000E+00 +5.6843418E-13 +0.0000000E+00
    outer loop      
      vertex   +1.5000000E-01 -5.0000000E-02 +5.0000000E-02
      vertex   +1.5000000E-01 -5.0000000E-02 +0.0000000E+00
      vertex   +1.5000000E-01 +0.0000000E+00 +0.0000000E+00
    endloop
  endfacet
  facet normal +1.0000000E+00 +5.6843418E-13 +0.0000000E+00
    outer loop      
      vertex   +1.5000000E-01 +0.0000000E+00 +0.0000000E+00
      vertex   +1.5000000E-01 +0.0000000E+00 +5.0000000E-02
      vertex   +1.5000000E-01 -5.0000000E-02 +5.0000000E-02
    endloop
  endfacet
  facet normal +0.0000000E+00 -1.0000000E+00 +0.0000000E+00
    outer loop      
      vertex   +1.0000000E-01 -5.0000000E-02 +5.0000000E-02
      vertex   +1.0000000E-01 -5.0000000E-02 +0.0000000E+00
      vertex   +1.5000000E-01 -5.0000000E-02 +0.0000000E+00
    endloop
  endfacet
  facet normal +0.0000000E+00 -1.0000000E+00 +0.0000000E+00
    outer loop      
      vertex   +1.5000000E-01 -5.0000000E-02 +0.0000000E+00
      vertex   +1.5000000E-01 -5.0000000E-02 +5.0000000E-02
      vertex   +1.0000000E-01 -5.0000000E-02 +5.0000000E-02
    endloop
  endfacet
  facet normal +0.0000000E+00 +0.0000000E+00 +1.0000000E+00
    outer loop      
      vertex   +1.5000000E-01 -5.0000000E-02 +5.0000000E-02
      vertex   +1.5000000E-01 +0.0000000E+00 +5.0000000E-02
      vertex   +1.0000000E-01 +0.0000000E+00 +5.0000000E-02
    endloop
  endfacet
  facet normal +0.0000000E+00 +0.0000000E+00 +1.0000000E-00
    outer loop      
      vertex   +1.0000000E-01 +0.0000000E+00 +5.0000000E-02
      vertex   +1.0000000E-01 -5.0000000E-02 +5.0000000E-02
      vertex   +1.5000000E-01 -5.0000000E-02 +5.0000000E-02
    endloop
  endfacet
  facet normal +0.0000000E+00 +0.0000000E+00 -1.0000000E-00
    outer loop      
      vertex   +1.5000000E-01 -5.0000000E-02 +0.0000000E+00
      vertex   +1.0000000E-01 -5.0000000E-02 +0.0000000E+00
      vertex   +1.0000000E-01 +0.0000000E+00 +0.0000000E+00
    endloop
  endfacet
  facet normal +0.0000000E+00 +0.0000000E+00 -1.0000000E+00
    outer loop      
      vertex   +1.0000000E-01 +0.0000000E+00 +0.0000000E+00
      vertex   +1.5000000E-01 +0.0000000E+00 +0.0000000E+00
      vertex   +1.5000000E-01 -5.0000000E-02 +0.0000000E+00
    endloop
  endfacet
endsolid
solid
  facet normal -1.0000000E+00 +5.6843418E-13 +0.0000000E+00
    outer loop      
      vertex   +2.0000000E-01 -1.5000000E-01 +5.0000000E-02
      vertex   +2.0000000E-01 -1.5000000E-01 +0.0000000E+00
      vertex   +2.0000000E-01 -2.0000000E-01 +0.0000000E+00
    endloop
  endfacet
  facet normal -1.0000000E+00 +5.6843418E-13 +0.0000000E+00
    outer loop      
      vertex   +2.0000000E-01 -2.0000000E-01 +0.0000000E+00
      vertex   +2.0000000E-01 -2.0000000E-01 +5.0000000E-02
      vertex   +2.0000000E-01 -1.5000000E-01 +5.0000000E-02
    endloop
  endfacet
  facet normal +0.0000000E+00 +1.0000000E+00 +0.0000000E+00
    outer loop      
      vertex   +2.5000000E-01 -1.5000000E-01 +5.0000000E-02
      vertex   +2.5000000E-01 -1.5000000E-01 +0.0000000E+00
      vertex   +2.0000000E-01 -1.5000000E-01 +0.0000000E+00
    endloop
  endfacet
  facet normal +0.0000000E+00 +1.0000000E+00 +0.0000000E+00
    outer loop      
      vertex   +2.0000000E-01 -1.5000000E-01 +0.0000000E+00
      vertex   +2.0000000E-01 -1.5000000E-01 +5.0000000E-02
      vertex   +2.5000000E-01 -1.5000000E-01 +5.0000000E-02
    endloop
  endfacet
  facet normal +1.0000000E+00 -5.6843418E-13 +0.0000000E+00
    outer loop      
      vertex   +2.5000000E-01 -2.0000000E-01 +5.0000000E-02
      vertex   +2.5000000E-01 -2.0000000E-01 +0.0000000E+00
      vertex   +2.5000000E-01 -1.5000000E-01 +0.0000000E+00
    endloop
  endfacet
  facet normal +1.0000000E+00 -5.6843418E-13 +0.0000000E+00
    outer loop      
      vertex   +2.5000000E-01 -1.5000000E-01 +0.0000000E+00
      vertex   +2.5000000E-01 -1.5000000E-01 +5.0000000E-02
      vertex   +2.5000000E-01 -2.0000000E-01 +5.0000000E-02
    endloop
  endfacet
  facet normal +0.0000000E+00 -1.0000000E+00 +0.0000000E+00
    outer loop      
      vertex   +2.0000000E-01 -2.0000000E-01 +5.0000000E-02
      vertex   +2.0000000E-01 -2.0000000E-01 +0.0000000E+00
      vertex   +2.5000000E-01 -2.0000000E-01 +0.0000000E+00
    endloop
  endfacet
  facet normal +0.0000000E+00 -1.0000000E+00 +0.0000000E+00
    outer loop      
      vertex   +2.5000000E-01 -2.0000000E-01 +0.0000000E+00
      vertex   +2.5000000E-01 -2.0000000E-01 +5.0000000E-02
      vertex   +2.0000000E-01 -2.0000000E-01 +5.0000000E-02
    endloop
  endfacet
  facet normal +0.0000000E+00 +0.0000000E+00 +1.0000000E-00
    outer loop      
      vertex   +2.5000000E-01 -2.0000000E-01 +5.0000000E-02
      vertex   +2.5000000E-01 -1.5000000E-01 +5.0000000E-02
      vertex   +2.0000000E-01 -1.5000000E-01 +5.0000000E-02
    endloop
  endfacet
  facet normal +0.0000000E+00 +0.0000000E+00 +1.0000000E-00
    outer loop      
      vertex   +2.0000000E-01 -1.5000000E-01 +5.0000000E-02
      vertex   +2.0000000E-01 -2.0000000E-01 +5.0000000E-02
      vertex   +2.5000000E-01 -2.0000000E-01 +5.0000000E-02
    endloop
  endfacet
  facet normal +0.0000000E+00 +0.0000000E+00 -1.0000000E-00
    outer loop      
      vertex   +2.5000000E-01 -2.0000000E-01 +0.0000000E+00
      vertex   +2.0000000E-01 -2.0000000E-01 +0.0000000E+00
      vertex   +2.0000000E-01 -1.5000000E-01 +0.0000000E+00
    endloop
  endfacet
  facet normal +0.0000000E+00 +0.0000000E+00 -1.0000000E-00
    outer loop      
      vertex   +2.0000000E-01 -1.5000000E-01 +0.0000000E+00
      vertex   +2.5000000E-01 -1.5000000E-01 +0.0000000E+00
      vertex   +2.5000000E-01 -2.0000000E-01 +0.0000000E+00
    endloop
  endfacet
endsolid
solid
  facet normal -1.0000000E+00 +0.0000000E+00 +0.0000000E+00
    outer loop      
      vertex   +2.0000000E-01 -5.0000000E-02 +5.0000000E-02
      vertex   +2.0000000E-01 -5.0000000E-02 +0.0000000E+00
      vertex   +2.0000000E-01 -1.0000000E-01 +0.0000000E+00
    endloop
  endfacet
  facet normal -1.0000000E+00 +0.0000000E+00 +0.0000000E+00
    outer loop      
      vertex   +2.0000000E-01 -1.0000000E-01 +0.0000000E+00
      vertex   +2.0000000E-01 -1.0000000E-01 +5.0000000E-02
      vertex   +2.0000000E-01 -5.0000000E-02 +5.0000000E-02
    endloop
  endfacet
  facet normal +4.2632564E-13 +1.0000000E+00 +0.0000000E+00
    outer loop      
      vertex   +2.5000000E-01 -5.0000000E-02 +5.0000000E-02
      vertex   +2.5000000E-01 -5.0000000E-02 +0.0000000E+00
      vertex   +2.0000000E-01 -5.0000000E-02 +0.0000000E+00
    endloop
  endfacet
  facet normal +4.2632564E-13 +1.0000000E+00 +0.0000000E+00
    outer loop      
      vertex   +2.0000000E-01 -5.0000000E-02 +0.0000000E+00
      vertex   +2.0000000E-01 -5.0000000E-02 +5.0000000E-02
      vertex   +2.5000000E-01 -5.0000000E-02 +5.0000000E-02
    endloop
  endfacet
  facet normal +1.0000000E-00 -5.6954441E-13 +0.0000000E+00
    outer loop      
      vertex   +2.5000000E-01 -1.0000000E-01 +5.0000000E-02
      vertex   +2.5000000E-01 -1.0000000E-01 +0.0000000E+00
      vertex   +2.5000000E-01 -5.0000000E-02 +0.0000000E+00
    endloop
  endfacet
  facet normal +1.0000000E-00 -5.6954441E-13 +0.0000000E+00
    outer loop      
      vertex   +2.5000000E-01 -5.0000000E-02 +0.0000000E+00
      vertex   +2.5000000E-01 -5.0000000E-02 +5.0000000E-02
      vertex   +2.5000000E-01 -1.0000000E-01 +5.0000000E-02
    endloop
  endfacet
  facet normal +0.0000000E+00 -1.0000000E+00 +0.0000000E+00
    outer loop      
      vertex   +2.0000000E-01 -1.0000000E-01 +5.0000000E-02
      vertex   +2.0000000E-01 -1.0000000E-01 +0.0000000E+00
      vertex   +2.5000000E-01 -1.0000000E-01 +0.0000000E+00
    endloop
  endfacet
  facet normal +0.0000000E+00 -1.0000000E+00 +0.0000000E+00
    outer loop      
      vertex   +2.5000000E-01 -1.0000000E-01 +0.0000000E+00
      vertex   +2.5000000E-01 -1.0000000E-01 +5.0000000E-02
      vertex   +2.0000000E-01 -1.0000000E-01 +5.0000000E-02
    endloop
  endfacet
  facet normal +0.0000000E+00 +0.0000000E+00 +1.0000000E+00
    outer loop      
      vertex   +2.0000000E-01 -5.0000000E-02 +5.0000000E-02
      vertex   +2.0000000E-01 -1.0000000E-01 +5.0000000E-02
      vertex   +2.5000000E-01 -1.0000000E-01 +5.0000000E-02
    endloop
  endfacet
  facet normal +0.0000000E+00 +0.0000000E+00 +1.0000000E+00
    outer loop      
      vertex   +2.5000000E-01 -1.0000000E-01 +5.0000000E-02
      vertex   +2.5000000E-01 -5.0000000E-02 +5.0000000E-02
      vertex   +2.0000000E-01 -5.0000000E-02 +5.0000000E-02
    endloop
  endfacet
  facet normal +0.0000000E+00 +0.0000000E+00 -1.0000000E+00
    outer loop      
      vertex   +2.0000000E-01 -5.0000000E-02 +0.0000000E+00
      vertex   +2.5000000E-01 -5.0000000E-02 +0.0000000E+00
      vertex   +2.5000000E-01 -1.0000000E-01 +0.0000000E+00
    endloop
  endfacet
  facet normal +0.0000000E+00 +0.0000000E+00 -1.0000000E+00
    outer loop      
      vertex   +2.5000000E-01 -1.0000000E-01 +0.0000000E+00
      vertex   +2.0000000E-01 -1.0000000E-01 +0.0000000E+00
      vertex   +2.0000000E-01 -5.0000000E-02 +0.0000000E+00
    endloop
  endfacet
endsolid
solid
  facet normal -1.0000000E+00 +5.6898929E-13 +0.0000000E+00
    outer loop      
      vertex   +2.0000000E-01 +5.0000000E-02 +5.0000000E-02
      vertex   +2.0000000E-01 +5.0000000E-02 +0.0000000E+00
      vertex   +2.0000000E-01 +0.0000000E+00 +0.0000000E+00
    endloop
  endfacet
  facet normal -1.0000000E+00 +5.6898929E-13 +0.0000000E+00
    outer loop      
      vertex   +2.0000000E-01 +0.0000000E+00 +0.0000000E+00
      vertex   +2.0000000E-01 +0.0000000E+00 +5.0000000E-02
      vertex   +2.0000000E-01 +5.0000000E-02 +5.0000000E-02
    endloop
  endfacet
  facet normal -2.8421709E-13 +1.0000000E-00 +0.0000000E+00
    outer loop      
      vertex   +2.5000000E-01 +5.0000000E-02 +5.0000000E-02
      vertex   +2.5000000E-01 +5.0000000E-02 +0.0000000E+00
      vertex   +2.0000000E-01 +5.0000000E-02 +0.0000000E+00
    endloop
  endfacet
  facet normal -2.8421709E-13 +1.0000000E-00 +0.0000000E+00
    outer loop      
      vertex   +2.0000000E-01 +5.0000000E-02 +0.0000000E+00
      vertex   +2.0000000E-01 +5.0000000E-02 +5.0000000E-02
      vertex   +2.5000000E-01 +5.0000000E-02 +5.0000000E-02
    endloop
  endfacet
  facet normal +1.0000000E+00 -5.6843418E-13 +0.0000000E+00
    outer loop      
      vertex   +2.5000000E-01 +0.0000000E+00 +5.0000000E-02
      vertex   +2.5000000E-01 +0.0000000E+00 +0.0000000E+00
      vertex   +2.5000000E-01 +5.0000000E-02 +0.0000000E+00
    endloop
  endfacet
  facet normal +1.0000000E+00 -5.6843418E-13 +0.0000000E+00
    outer loop      
      vertex   +2.5000000E-01 +5.0000000E-02 +0.0000000E+00
      vertex   +2.5000000E-01 +5.0000000E-02 +5.0000000E-02
      vertex   +2.5000000E-01 +0.0000000E+00 +5.0000000E-02
    endloop
  endfacet
  facet normal +0.0000000E+00 -1.0000000E+00 +0.0000000E+00
    outer loop      
      vertex   +2.0000000E-01 +0.0000000E+00 +5.0000000E-02
      vertex   +2.0000000E-01 +0.0000000E+00 +0.0000000E+00
      vertex   +2.5000000E-01 +0.0000000E+00 +0.0000000E+00
    endloop
  endfacet
  facet normal +0.0000000E+00 -1.0000000E+00 +0.0000000E+00
    outer loop      
      vertex   +2.5000000E-01 +0.0000000E+00 +0.0000000E+00
      vertex   +2.5000000E-01 +0.0000000E+00 +5.0000000E-02
      vertex   +2.0000000E-01 +0.0000000E+00 +5.0000000E-02
    endloop
  endfacet
  facet normal +0.0000000E+00 +0.0000000E+00 +1.0000000E+00
    outer loop      
      vertex   +2.5000000E-01 +0.0000000E+00 +5.0000000E-02
      vertex   +2.5000000E-01 +5.0000000E-02 +5.0000000E-02
      vertex   +2.0000000E-01 +5.0000000E-02 +5.0000000E-02
    endloop
  endfacet
  facet normal +0.0000000E+00 +0.0000000E+00 +1.0000000E-00
    outer loop      
      vertex   +2.0000000E-01 +5.0000000E-02 +5.0000000E-02
      vertex   +2.0000000E-01 +0.0000000E+00 +5.0000000E-02
      vertex   +2.5000000E-01 +0.0000000E+00 +5.0000000E-02
    endloop
  endfacet
  facet normal +0.0000000E+00 +0.0000000E+00 -1.0000000E-00
    outer loop      
      vertex   +2.5000000E-01 +0.0000000E+00 +0.0000000E+00
      vertex   +2.0000000E-01 +0.0000000E+00 +0.0000000E+00
      vertex   +2.0000000E-01 +5.0000000E-02 +0.0000000E+00
    endloop
  endfacet
  facet normal +0.0000000E+00 +0.0000000E+00 -1.0000000E+00
    outer loop      
      vertex   +2.0000000E-01 +5.0000000E-02 +0.0000000E+00
      vertex   +2.5000000E-01 +5.0000000E-02 +0.0000000E+00
      vertex   +2.5000000E-01 +0.0000000E+00 +0.0000000E+00
    endloop
  endfacet
endsolid
solid
  facet normal -1.0000000E+00 +0.0000000E+00 +0.0000000E+00
    outer loop      
      vertex   +3.0000000E-01 -1.0000000E-01 +5.0000000E-02
      vertex   +3.0000000E-01 -1.0000000E-01 +0.0000000E+00
      vertex   +3.0000000E-01 -1.5000000E-01 +0.0000000E+00
    endloop
  endfacet
  facet normal -1.0000000E+00 +0.0000000E+00 +0.0000000E+00
    outer loop      
      vertex   +3.0000000E-01 -1.5000000E-01 +0.0000000E+00
      vertex   +3.0000000E-01 -1.5000000E-01 +5.0000000E-02
      vertex   +3.0000000E-01 -1.0000000E-01 +5.0000000E-02
    endloop
  endfacet
  facet normal +0.0000000E+00 +1.0000000E+00 +0.0000000E+00
    outer loop      
      vertex   +3.5000000E-01 -1.0000000E-01 +5.0000000E-02
      vertex   +3.5000000E-01 -1.0000000E-01 +0.0000000E+00
      vertex   +3.0000000E-01 -1.0000000E-01 +0.0000000E+00
    endloop
  endfacet
  facet normal +0.0000000E+00 +1.0000000E+00 +0.0000000E+00
    outer loop      
      vertex   +3.0000000E-01 -1.0000000E-01 +0.0000000E+00
      vertex   +3.0000000E-01 -1.0000000E-01 +5.0000000E-02
      vertex   +3.5000000E-01 -1.0000000E-01 +5.0000000E-02
    endloop
  endfacet
  facet normal +1.0000000E+00 +0.0000000E+00 +0.0000000E+00
    outer loop      
      vertex   +3.5000000E-01 -1.5000000E-01 +5.0000000E-02
      vertex   +3.5000000E-01 -1.5000000E-01 +0.0000000E+00
      vertex   +3.5000000E-01 -1.0000000E-01 +0.0000000E+00
    endloop
  endfacet
  facet normal +1.0000000E+00 +0.0000000E+00 +0.0000000E+00
    outer loop      
      vertex   +3.5000000E-01 -1.0000000E-01 +0.0000000E+00
      vertex   +3.5000000E-01 -1.0000000E-01 +5.0000000E-02
      vertex   +3.5000000E-01 -1.5000000E-01 +5.0000000E-02
    endloop
  endfacet
  facet normal +0.0000000E+00 -1.0000000E+00 +0.0000000E+00
    outer loop      
      vertex   +3.0000000E-01 -1.5000000E-01 +5.0000000E-02
      vertex   +3.0000000E-01 -1.5000000E-01 +0.0000000E+00
      vertex   +3.5000000E-01 -1.5000000E-01 +0.0000000E+00
    endloop
  endfacet
  facet normal +0.0000000E+00 -1.0000000E+00 +0.0000000E+00
    outer loop      
      vertex   +3.5000000E-01 -1.5000000E-01 +0.0000000E+00
      vertex   +3.5000000E-01 -1.5000000E-01 +5.0000000E-02
      vertex   +3.0000000E-01 -1.5000000E-01 +5.0000000E-02
    endloop
  endfacet
  facet normal +0.0000000E+00 +0.0000000E+00 +1.0000000E+00
    outer loop      
      vertex   +3.5000000E-01 -1.0000000E-01 +5.0000000E-02
      vertex   +3.0000000E-01 -1.0000000E-01 +5.0000000E-02
      vertex   +3.0000000E-01 -1.5000000E-01 +5.0000000E-02
    endloop
  endfacet
  facet normal +0.0000000E+00 +0.0000000E+00 +1.0000000E+00
    outer loop      
      vertex   +3.0000000E-01 -1.5000000E-01 +5.0000000E-02
      vertex   +3.5000000E-01 -1.5000000E-01 +5.0000000E-02
      vertex   +3.5000000E-01 -1.0000000E-01 +5.0000000E-02
    endloop
  endfacet
  facet normal +0.0000000E+00 +0.0000000E+00 -1.0000000E+00
    outer loop      
      vertex   +3.5000000E-01 -1.5000000E-01 +0.0000000E+00
      vertex   +3.0000000E-01 -1.5000000E-01 +0.0000000E+00
      vertex   +3.0000000E-01 -1.0000000E-01 +0.0000000E+00
    endloop
  endfacet
  facet normal +0.0000000E+00 +0.0000000E+00 -1.0000000E+00
    outer loop      
      vertex   +3.0000000E-01 -1.0000000E-01 +0.0000000E+00
      vertex   +3.5000000E-01 -1.0000000E-01 +0.0000000E+00
      vertex   +3.5000000E-01 -1.5000000E-01 +0.0000000E+00
    endloop
  endfacet
endsolid
solid
  facet normal -1.0000000E+00 +0.0000000E+00 +0.0000000E+00
    outer loop      
      vertex   +3.0000000E-01 +0.0000000E+00 +5.0000000E-02
      vertex   +3.0000000E-01 +0.0000000E+00 +0.0000000E+00
      vertex   +3.0000000E-01 -5.0000000E-02 +0.0000000E+00
    endloop
  endfacet
  facet normal -1.0000000E+00 +0.0000000E+00 +0.0000000E+00
    outer loop      
      vertex   +3.0000000E-01 -5.0000000E-02 +0.0000000E+00
      vertex   +3.0000000E-01 -5.0000000E-02 +5.0000000E-02
      vertex   +3.0000000E-01 +0.0000000E+00 +5.0000000E-02
    endloop
  endfacet
  facet normal +0.0000000E+00 +1.0000000E+00 +0.0000000E+00
    outer loop      
      vertex   +3.5000000E-01 +0.0000000E+00 +5.0000000E-02
      vertex   +3.5000000E-01 +0.0000000E+00 +0.0000000E+00
      vertex   +3.0000000E-01 +0.0000000E+00 +0.0000000E+00
    endloop
  endfacet
  facet normal +0.0000000E+00 +1.0000000E+00 +0.0000000E+00
    outer loop      
      vertex   +3.0000000E-01 +0.0000000E+00 +0.0000000E+00
      vertex   +3.0000000E-01 +0.0000000E+00 +5.0000000E-02
      vertex   +3.5000000E-01 +0.0000000E+00 +5.0000000E-02
    endloop
  endfacet
  facet normal +1.0000000E+00 +0.0000000E+00 +0.0000000E+00
    outer loop      
      vertex   +3.5000000E-01 -5.0000000E-02 +5.0000000E-02
      vertex   +3.5000000E-01 -5.0000000E-02 +0.0000000E+00
      vertex   +3.5000000E-01 +0.0000000E+00 +0.0000000E+00
    endloop
  endfacet
  facet normal +1.0000000E+00 +0.0000000E+00 +0.0000000E+00
    outer loop      
      vertex   +3.5000000E-01 +0.0000000E+00 +0.0000000E+00
      vertex   +3.5000000E-01 +0.0000000E+00 +5.0000000E-02
      vertex   +3.5000000E-01 -5.0000000E-02 +5.0000000E-02
    endloop
  endfacet
  facet normal +0.0000000E+00 -1.0000000E+00 +0.0000000E+00
    outer loop      
      vertex   +3.0000000E-01 -5.0000000E-02 +5.0000000E-02
      vertex   +3.0000000E-01 -5.0000000E-02 +0.0000000E+00
      vertex   +3.5000000E-01 -5.0000000E-02 +0.0000000E+00
    endloop
  endfacet
  facet normal +0.0000000E+00 -1.0000000E+00 +0.0000000E+00
    outer loop      
      vertex   +3.5000000E-01 -5.0000000E-02 +0.0000000E+00
      vertex   +3.5000000E-01 -5.0000000E-02 +5.0000000E-02
      vertex   +3.0000000E-01 -5.0000000E-02 +5.0000000E-02
    endloop
  endfacet
  facet normal +0.0000000E+00 +0.0000000E+00 +1.0000000E+00
    outer loop      
      vertex   +3.0000000E-01 -5.0000000E-02 +5.0000000E-02
      vertex   +3.5000000E-01 -5.0000000E-02 +5.0000000E-02
      vertex   +3.5000000E-01 +0.0000000E+00 +5.0000000E-02
    endloop
  endfacet
  facet normal +0.0000000E+00 +0.0000000E+00 +1.0000000E+00
    outer loop      
      vertex   +3.5000000E-01 +0.0000000E+00 +5.0000000E-02
      vertex   +3.0000000E-01 +0.0000000E+00 +5.0000000E-02
      vertex   +3.0000000E-01 -5.0000000E-02 +5.0000000E-02
    endloop
  endfacet
  facet normal +0.0000000E+00 +0.0000000E+00 -1.0000000E+00
    outer loop      
      vertex   +3.0000000E-01 -5.0000000E-02 +0.0000000E+00
      vertex   +3.0000000E-01 +0.0000000E+00 +0.0000000E+00
      vertex   +3.5000000E-01 +0.0000000E+00 +0.0000000E+00
    endloop
  endfacet
  facet normal +0.0000000E+00 +0.0000000E+00 -1.0000000E+00
    outer loop      
      vertex   +3.5000000E-01 +0.0000000E+00 +0.0000000E+00
      vertex   +3.5000000E-01 -5.0000000E-02 +0.0000000E+00
      vertex   +3.0000000E-01 -5.0000000E-02 +0.0000000E+00
    endloop
  endfacet
endsolid
solid
  facet normal -1.0000000E+00 +0.0000000E+00 +0.0000000E+00
    outer loop      
      vertex   +4.0000000E-01 -1.5000000E-01 +5.0000000E-02
      vertex   +4.0000000E-01 -1.5000000E-01 +0.0000000E+00
      vertex   +4.0000000E-01 -2.0000000E-01 +0.0000000E+00
    endloop
  endfacet
  facet normal -1.0000000E+00 +0.0000000E+00 +0.0000000E+00
    outer loop      
      vertex   +4.0000000E-01 -2.0000000E-01 +0.0000000E+00
      vertex   +4.0000000E-01 -2.0000000E-01 +5.0000000E-02
      vertex   +4.0000000E-01 -1.5000000E-01 +5.0000000E-02
    endloop
  endfacet
  facet normal +0.0000000E+00 +1.0000000E+00 +0.0000000E+00
    outer loop      
      vertex   +4.5000000E-01 -1.5000000E-01 +5.0000000E-02
      vertex   +4.5000000E-01 -1.5000000E-01 +0.0000000E+00
      vertex   +4.0000000E-01 -1.5000000E-01 +0.0000000E+00
    endloop
  endfacet
  facet normal +0.0000000E+00 +1.0000000E+00 +0.0000000E+00
    outer loop      
      vertex   +4.0000000E-01 -1.5000000E-01 +0.0000000E+00
      vertex   +4.0000000E-01 -1.5000000E-01 +5.0000000E-02
      vertex   +4.5000000E-01 -1.5000000E-01 +5.0000000E-02
    endloop
  endfacet
  facet normal +1.0000000E+00 +0.0000000E+00 +0.0000000E+00
    outer loop      
      vertex   +4.5000000E-01 -2.0000000E-01 +5.0000000E-02
      vertex   +4.5000000E-01 -2.0000000E-01 +0.0000000E+00
      vertex   +4.5000000E-01 -1.5000000E-01 +0.0000000E+00
    endloop
  endfacet
  facet normal +1.0000000E+00 +0.0000000E+00 +0.0000000E+00
    outer loop      
      vertex   +4.5000000E-01 -1.5000000E-01 +0.0000000E+00
      vertex   +4.5000000E-01 -1.5000000E-01 +5.0000000E-02
      vertex   +4.5000000E-01 -2.0000000E-01 +5.0000000E-02
    endloop
  endfacet
  facet normal +5.6843418E-13 -1.0000000E+00 +0.0000000E+00
    outer loop      
      vertex   +4.0000000E-01 -2.0000000E-01 +5.0000000E-02
      vertex   +4.0000000E-01 -2.0000000E-01 +0.0000000E+00
      vertex   +4.5000000E-01 -2.0000000E-01 +0.0000000E+00
    endloop
  endfacet
  facet normal +5.6843418E-13 -1.0000000E+00 +0.0000000E+00
    outer loop      
      vertex   +4.5000000E-01 -2.0000000E-01 +0.0000000E+00
      vertex   +4.5000000E-01 -2.0000000E-01 +5.0000000E-02
      vertex   +4.0000000E-01 -2.0000000E-01 +5.0000000E-02
    endloop
  endfacet
  facet normal +0.0000000E+00 +0.0000000E+00 +1.0000000E-00
    outer loop      
      vertex   +4.0000000E-01 -1.5000000E-01 +5.0000000E-02
      vertex   +4.0000000E-01 -2.0000000E-01 +5.0000000E-02
      vertex   +4.5000000E-01 -2.0000000E-01 +5.0000000E-02
    endloop
  endfacet
  facet normal +0.0000000E+00 +0.0000000E+00 +1.0000000E-00
    outer loop      
      vertex   +4.5000000E-01 -2.0000000E-01 +5.0000000E-02
      vertex   +4.5000000E-01 -1.5000000E-01 +5.0000000E-02
      vertex   +4.0000000E-01 -1.5000000E-01 +5.0000000E-02
    endloop
  endfacet
  facet normal +0.0000000E+00 +0.0000000E+00 -1.0000000E-00
    outer loop      
      vertex   +4.0000000E-01 -1.5000000E-01 +0.0000000E+00
      vertex   +4.5000000E-01 -1.5000000E-01 +0.0000000E+00
      vertex   +4.5000000E-01 -2.0000000E-01 +0.0000000E+00
    endloop
  endfacet
  facet normal +0.0000000E+00 +0.0000000E+00 -1.0000000E-00
    outer loop      
      vertex   +4.5000000E-01 -2.0000000E-01 +0.0000000E+00
      vertex   +4.0000000E-01 -2.0000000E-01 +0.0000000E+00
      vertex   +4.0000000E-01 -1.5000000E-01 +0.0000000E+00
    endloop
  endfacet
endsolid
solid
  facet normal -1.0000000E-00 +0.0000000E+00 +0.0000000E+00
    outer loop      
      vertex   +4.0000000E-01 -5.0000000E-02 +5.0000000E-02
      vertex   +4.0000000E-01 -5.0000000E-02 +0.0000000E+00
      vertex   +4.0000000E-01 -1.0000000E-01 +0.0000000E+00
    endloop
  endfacet
  facet normal -1.0000000E-00 +0.0000000E+00 +0.0000000E+00
    outer loop      
      vertex   +4.0000000E-01 -1.0000000E-01 +0.0000000E+00
      vertex   +4.0000000E-01 -1.0000000E-01 +5.0000000E-02
      vertex   +4.0000000E-01 -5.0000000E-02 +5.0000000E-02
    endloop
  endfacet
  facet normal +0.0000000E+00 +1.0000000E+00 +0.0000000E+00
    outer loop      
      vertex   +4.5000000E-01 -5.0000000E-02 +5.0000000E-02
      vertex   +4.5000000E-01 -5.0000000E-02 +0.0000000E+00
      vertex   +4.0000000E-01 -5.0000000E-02 +0.0000000E+00
    endloop
  endfacet
  facet normal +0.0000000E+00 +1.0000000E+00 +0.0000000E+00
    outer loop      
      vertex   +4.0000000E-01 -5.0000000E-02 +0.0000000E+00
      vertex   +4.0000000E-01 -5.0000000E-02 +5.0000000E-02
      vertex   +4.5000000E-01 -5.0000000E-02 +5.0000000E-02
    endloop
  endfacet
  facet normal +1.0000000E-00 +0.0000000E+00 +0.0000000E+00
    outer loop      
      vertex   +4.5000000E-01 -1.0000000E-01 +5.0000000E-02
      vertex   +4.5000000E-01 -1.0000000E-01 +0.0000000E+00
      vertex   +4.5000000E-01 -5.0000000E-02 +0.0000000E+00
    endloop
  endfacet
  facet normal +1.0000000E-00 +0.0000000E+00 +0.0000000E+00
    outer loop      
      vertex   +4.5000000E-01 -5.0000000E-02 +0.0000000E+00
      vertex   +4.5000000E-01 -5.0000000E-02 +5.0000000E-02
      vertex   +4.5000000E-01 -1.0000000E-01 +5.0000000E-02
    endloop
  endfacet
  facet normal +0.0000000E+00 -1.0000000E+00 +0.0000000E+00
    outer loop      
      vertex   +4.0000000E-01 -1.0000000E-01 +5.0000000E-02
      vertex   +4.0000000E-01 -1.0000000E-01 +0.0000000E+00
      vertex   +4.5000000E-01 -1.0000000E-01 +0.0000000E+00
    endloop
  endfacet
  facet normal +0.0000000E+00 -1.0000000E+00 +0.0000000E+00
    outer loop      
      vertex   +4.5000000E-01 -1.0000000E-01 +0.0000000E+00
      vertex   +4.5000000E-01 -1.0000000E-01 +5.0000000E-02
      vertex   +4.0000000E-01 -1.0000000E-01 +5.0000000E-02
    endloop
  endfacet
  facet normal +0.0000000E+00 +0.0000000E+00 +1.0000000E+00
    outer loop      
      vertex   +4.5000000E-01 -5.0000000E-02 +5.0000000E-02
      vertex   +4.0000000E-01 -5.0000000E-02 +5.0000000E-02
      vertex   +4.0000000E-01 -1.0000000E-01 +5.0000000E-02
    endloop
  endfacet
  facet normal +0.0000000E+00 +0.0000000E+00 +1.0000000E+00
    outer loop      
      vertex   +4.0000000E-01 -1.0000000E-01 +5.0000000E-02
      vertex   +4.5000000E-01 -1.0000000E-01 +5.0000000E-02
      vertex   +4.5000000E-01 -5.0000000E-02 +5.0000000E-02
    endloop
  endfacet
  facet normal +0.0000000E+00 +0.0000000E+00 -1.0000000E+00
    outer loop      
      vertex   +4.5000000E-01 -1.0000000E-01 +0.0000000E+00
      vertex   +4.0000000E-01 -1.0000000E-01 +0.0000000E+00
      vertex   +4.0000000E-01 -5.0000000E-02 +0.0000000E+00
    endloop
  endfacet
  facet normal +0.0000000E+00 +0.0000000E+00 -1.0000000E+00
    outer loop      
      vertex   +4.0000000E-01 -5.0000000E-02 +0.0000000E+00
      vertex   +4.5000000E-01 -5.0000000E-02 +0.0000000E+00
      vertex   +4.5000000E-01 -1.0000000E-01 +0.0000000E+00
    endloop
  endfacet
endsolid
solid
  facet normal -1.0000000E+00 +0.0000000E+00 +0.0000000E+00
    outer loop      
      vertex   +4.0000000E-01 +5.0000000E-02 +5.0000000E-02
      vertex   +4.0000000E-01 +5.0000000E-02 +0.0000000E+00
      vertex   +4.0000000E-01 +0.0000000E+00 +0.0000000E+00
    endloop
  endfacet
  facet normal -1.0000000E+00 +0.0000000E+00 +0.0000000E+00
    outer loop      
      vertex   +4.0000000E-01 +0.0000000E+00 +0.0000000E+00
      vertex   +4.0000000E-01 +0.0000000E+00 +5.0000000E-02
      vertex   +4.0000000E-01 +5.0000000E-02 +5.0000000E-02
    endloop
  endfacet
  facet normal +0.0000000E+00 +1.0000000E+00 +0.0000000E+00
    outer loop      
      vertex   +4.5000000E-01 +5.0000000E-02 +5.0000000E-02
      vertex   +4.5000000E-01 +5.0000000E-02 +0.0000000E+00
      vertex   +4.0000000E-01 +5.0000000E-02 +0.0000000E+00
    endloop
  endfacet
  facet normal +0.0000000E+00 +1.0000000E+00 +0.0000000E+00
    outer loop      
      vertex   +4.0000000E-01 +5.0000000E-02 +0.0000000E+00
      vertex   +4.0000000E-01 +5.0000000E-02 +5.0000000E-02
      vertex   +4.5000000E-01 +5.0000000E-02 +5.0000000E-02
    endloop
  endfacet
  facet normal +1.0000000E+00 +1.1368683E-12 +0.0000000E+00
    outer loop      
      vertex   +4.5000000E-01 +0.0000000E+00 +5.0000000E-02
      vertex   +4.5000000E-01 +0.0000000E+00 +0.0000000E+00
      vertex   +4.5000000E-01 +5.0000000E-02 +0.0000000E+00
    endloop
  endfacet
  facet normal +1.0000000E+00 +1.1368683E-12 +0.0000000E+00
    outer loop      
      vertex   +4.5000000E-01 +5.0000000E-02 +0.0000000E+00
      vertex   +4.5000000E-01 +5.0000000E-02 +5.0000000E-02
      vertex   +4.5000000E-01 +0.0000000E+00 +5.0000000E-02
    endloop
  endfacet
  facet normal +0.0000000E+00 -1.0000000E+00 +0.0000000E+00
    outer loop      
      vertex   +4.0000000E-01 +0.0000000E+00 +5.0000000E-02
      vertex   +4.0000000E-01 +0.0000000E+00 +0.0000000E+00
      vertex   +4.5000000E-01 +0.0000000E+00 +0.0000000E+00
    endloop
  endfacet
  facet normal +0.0000000E+00 -1.0000000E+00 +0.0000000E+00
    outer loop      
      vertex   +4.5000000E-01 +0.0000000E+00 +0.0000000E+00
      vertex   +4.5000000E-01 +0.0000000E+00 +5.0000000E-02
      vertex   +4.0000000E-01 +0.0000000E+00 +5.0000000E-02
    endloop
  endfacet
  facet normal +0.0000000E+00 +0.0000000E+00 +1.0000000E+00
    outer loop      
      vertex   +4.0000000E-01 +0.0000000E+00 +5.0000000E-02
      vertex   +4.5000000E-01 +0.0000000E+00 +5.0000000E-02
      vertex   +4.5000000E-01 +5.0000000E-02 +5.0000000E-02
    endloop
  endfacet
  facet normal +0.0000000E+00 +0.0000000E+00 +1.0000000E-00
    outer loop      
      vertex   +4.5000000E-01 +5.0000000E-02 +5.0000000E-02
      vertex   +4.0000000E-01 +5.0000000E-02 +5.0000000E-02
      vertex   +4.0000000E-01 +0.0000000E+00 +5.0000000E-02
    endloop
  endfacet
  facet normal +0.0000000E+00 +0.0000000E+00 -1.0000000E-00
    outer loop      
      vertex   +4.0000000E-01 +0.0000000E+00 +0.0000000E+00
      vertex   +4.0000000E-01 +5.0000000E-02 +0.0000000E+00
      vertex   +4.5000000E-01 +5.0000000E-02 +0.0000000E+00
    endloop
  endfacet
  facet normal +0.0000000E+00 +0.0000000E+00 -1.0000000E+00
    outer loop      
      vertex   +4.5000000E-01 +5.0000000E-02 +0.0000000E+00
      vertex   +4.5000000E-01 +0.0000000E+00 +0.0000000E+00
      vertex   +4.0000000E-01 +0.0000000E+00 +0.0000000E+00
    endloop
  endfacet
endsolid
solid
  facet normal -1.0000000E+00 +0.0000000E+00 +0.0000000E+00
    outer loop      
      vertex   +5.0000000E-01 -1.0000000E-01 +5.0000000E-02
      vertex   +5.0000000E-01 -1.0000000E-01 +0.0000000E+00
      vertex   +5.0000000E-01 -1.5000000E-01 +0.0000000E+00
    endloop
  endfacet
  facet normal -1.0000000E+00 +0.0000000E+00 +0.0000000E+00
    outer loop      
      vertex   +5.0000000E-01 -1.5000000E-01 +0.0000000E+00
      vertex   +5.0000000E-01 -1.5000000E-01 +5.0000000E-02
      vertex   +5.0000000E-01 -1.0000000E-01 +5.0000000E-02
    endloop
  endfacet
  facet normal +0.0000000E+00 +1.0000000E+00 +0.0000000E+00
    outer loop      
      vertex   +5.5000000E-01 -1.0000000E-01 +5.0000000E-02
      vertex   +5.5000000E-01 -1.0000000E-01 +0.0000000E+00
      vertex   +5.0000000E-01 -1.0000000E-01 +0.0000000E+00
    endloop
  endfacet
  facet normal +0.0000000E+00 +1.0000000E+00 +0.0000000E+00
    outer loop      
      vertex   +5.0000000E-01 -1.0000000E-01 +0.0000000E+00
      vertex   +5.0000000E-01 -1.0000000E-01 +5.0000000E-02
      vertex   +5.5000000E-01 -1.0000000E-01 +5.0000000E-02
    endloop
  endfacet
  facet normal +1.0000000E+00 +0.0000000E+00 +0.0000000E+00
    outer loop      
      vertex   +5.5000000E-01 -1.5000000E-01 +5.0000000E-02
      vertex   +5.5000000E-01 -1.5000000E-01 +0.0000000E+00
      vertex   +5.5000000E-01 -1.0000000E-01 +0.0000000E+00
    endloop
  endfacet
  facet normal +1.0000000E+00 +0.0000000E+00 +0.0000000E+00
    outer loop      
      vertex   +5.5000000E-01 -1.0000000E-01 +0.0000000E+00
      vertex   +5.5000000E-01 -1.0000000E-01 +5.0000000E-02
      vertex   +5.5000000E-01 -1.5000000E-01 +5.0000000E-02
    endloop
  endfacet
  facet normal +0.0000000E+00 -1.0000000E+00 +0.0000000E+00
    outer loop      
      vertex   +5.0000000E-01 -1.5000000E-01 +5.0000000E-02
      vertex   +5.0000000E-01 -1.5000000E-01 +0.0000000E+00
      vertex   +5.5000000E-01 -1.5000000E-01 +0.0000000E+00
    endloop
  endfacet
  facet normal +0.0000000E+00 -1.0000000E+00 +0.0000000E+00
    outer loop      
      vertex   +5.5000000E-01 -1.5000000E-01 +0.0000000E+00
      vertex   +5.5000000E-01 -1.5000000E-01 +5.0000000E-02
      vertex   +5.0000000E-01 -1.5000000E-01 +5.0000000E-02
    endloop
  endfacet
  facet normal +0.0000000E+00 +0.0000000E+00 +1.0000000E+00
    outer loop      
      vertex   +5.5000000E-01 -1.0000000E-01 +5.0000000E-02
      vertex   +5.0000000E-01 -1.0000000E-01 +5.0000000E-02
      vertex   +5.0000000E-01 -1.5000000E-01 +5.0000000E-02
    endloop
  endfacet
  facet normal +0.0000000E+00 +0.0000000E+00 +1.0000000E+00
    outer loop      
      vertex   +5.0000000E-01 -1.5000000E-01 +5.0000000E-02
      vertex   +5.5000000E-01 -1.5000000E-01 +5.0000000E-02
      vertex   +5.5000000E-01 -1.0000000E-01 +5.0000000E-02
    endloop
  endfacet
  facet normal +0.0000000E+00 +0.0000000E+00 -1.0000000E+00
    outer loop      
      vertex   +5.5000000E-01 -1.5000000E-01 +0.0000000E+00
      vertex   +5.0000000E-01 -1.5000000E-01 +0.0000000E+00
      vertex   +5.0000000E-01 -1.0000000E-01 +0.0000000E+00
    endloop
  endfacet
  facet normal +0.0000000E+00 +0.0000000E+00 -1.0000000E+00
    outer loop      
      vertex   +5.0000000E-01 -1.0000000E-01 +0.0000000E+00
      vertex   +5.5000000E-01 -1.0000000E-01 +0.0000000E+00
      vertex   +5.5000000E-01 -1.5000000E-01 +0.0000000E+00
    endloop
  endfacet
endsolid
